# xmcd
# Copyright (C) 1995-1998 Ti Kan
#
# Track frame offsets:
#       150
#       14996
#       29913
#       46012
#       58287
#       73746
#       88202
#       102925
#       103922
#       122318
#       132881
#       147351
#       160069
#       183418
#
# Disc length: 2527 seconds
#
# Revision: 0
# Processed by: cddbd v1.4PL0 Copyright (c) Steve Scherf et al.
# Submitted via: CD-Transfer v1.0
#
DISCID=d009dd0e
DTITLE=Mundartisten - Gift
DYEAR=2003
DGENRE=
TTITLE0=Ghoersch Die Band
TTITLE1=Dee's Deelight
TTITLE2=Gift
TTITLE3=Introduction
TTITLE4=I Had This Girl
TTITLE5=Knacknuss
TTITLE6=Reggae Raga Roots
TTITLE7=Skit To
TTITLE8=Immeseebaby
TTITLE9=Freestylskit
TTITLE10=I Chume Pt 2
TTITLE11=When I Was Young
TTITLE12=Kinder
TTITLE13=1 Minute...
EXTD=
EXTT0=
EXTT1=
EXTT2=
EXTT3=
EXTT4=
EXTT5=
EXTT6=
EXTT7=
EXTT8=
EXTT9=
EXTT10=
EXTT11=
EXTT12=
EXTT13=
PLAYORDER=
